<svg width="16" height="16" viewBox="0 0 16 16" fill="none" xmlns="http://www.w3.org/2000/svg">
<path fill-rule="evenodd" clip-rule="evenodd" d="M8 -3.3479e-07C8.55228 -3.10649e-07 9 0.447715 9 1L9 15C9 15.5523 8.55228 16 8 16C7.44772 16 7 15.5523 7 15L7 1C7 0.447715 7.44772 -3.58931e-07 8 -3.3479e-07Z" fill="#EF5D54"/>
<path fill-rule="evenodd" clip-rule="evenodd" d="M15.7071 8.70711C15.3166 9.09763 14.6834 9.09763 14.2929 8.70711L8 2.41421L1.70711 8.70711C1.31658 9.09763 0.683417 9.09763 0.292893 8.70711C-0.0976318 8.31658 -0.0976318 7.68342 0.292893 7.29289L7.29289 0.292893C7.68342 -0.0976315 8.31658 -0.0976314 8.70711 0.292893L15.7071 7.29289C16.0976 7.68342 16.0976 8.31658 15.7071 8.70711Z" fill="#EF5D54"/>
</svg>
