<svg width="16" height="16" viewBox="0 0 16 16" fill="none" xmlns="http://www.w3.org/2000/svg">
<path fill-rule="evenodd" clip-rule="evenodd" d="M8 16C7.44772 16 7 15.5523 7 15L7 1C7 0.447715 7.44772 8.88131e-08 8 9.5399e-08C8.55228 1.01985e-07 9 0.447715 9 1L9 15C9 15.5523 8.55228 16 8 16Z" fill="#EF5D54"/>
<path fill-rule="evenodd" clip-rule="evenodd" d="M0.292893 7.29289C0.683418 6.90237 1.31658 6.90237 1.70711 7.29289L8 13.5858L14.2929 7.29289C14.6834 6.90237 15.3166 6.90237 15.7071 7.29289C16.0976 7.68342 16.0976 8.31658 15.7071 8.70711L8.70711 15.7071C8.31658 16.0976 7.68342 16.0976 7.29289 15.7071L0.292893 8.70711C-0.097631 8.31658 -0.097631 7.68342 0.292893 7.29289Z" fill="#EF5D54"/>
</svg>
