<svg width="24" height="24" viewBox="0 0 24 24" fill="none" xmlns="http://www.w3.org/2000/svg">
<path fill-rule="evenodd" clip-rule="evenodd" d="M4 12.0002C4 11.448 4.44772 11.0002 5 11.0002H19C19.5523 11.0002 20 11.448 20 12.0002C20 12.5525 19.5523 13.0002 19 13.0002H5C4.44772 13.0002 4 12.5525 4 12.0002Z" fill="white"/>
<path fill-rule="evenodd" clip-rule="evenodd" d="M12.7071 4.29314C13.0976 4.68366 13.0976 5.31683 12.7071 5.70735L6.41421 12.0002L12.7071 18.2931C13.0976 18.6837 13.0976 19.3168 12.7071 19.7074C12.3166 20.0979 11.6834 20.0979 11.2929 19.7074L4.29289 12.7074C3.90237 12.3168 3.90237 11.6837 4.29289 11.2931L11.2929 4.29314C11.6834 3.90261 12.3166 3.90261 12.7071 4.29314Z" fill="white"/>
</svg>
