<svg width="36" height="36" viewBox="0 0 36 36" fill="none" xmlns="http://www.w3.org/2000/svg">
<circle opacity="0.7" cx="18" cy="18" r="18" fill="#333333"/>
<path fill-rule="evenodd" clip-rule="evenodd" d="M16.7143 10C16.5222 10 16.3396 10.0758 16.2062 10.208C16.0732 10.3399 16 10.5171 16 10.7V12H20V10.7C20 10.5171 19.9268 10.3399 19.7938 10.208C19.6604 10.0758 19.4778 10 19.2857 10H16.7143ZM22 12V10.7C22 9.9812 21.712 9.29355 21.202 8.78786C20.6924 8.28245 20.0029 8 19.2857 8H16.7143C15.9971 8 15.3076 8.28245 14.798 8.78786C14.288 9.29355 14 9.9812 14 10.7V12H10C9.44772 12 9 12.4477 9 13C9 13.5523 9.44772 14 10 14H11V24.3C11 25.0188 11.288 25.7064 11.798 26.2121C12.3076 26.7176 12.9971 27 13.7143 27H22.2857C23.0029 27 23.6924 26.7176 24.202 26.2121C24.712 25.7064 25 25.0188 25 24.3V14H26C26.5523 14 27 13.5523 27 13C27 12.4477 26.5523 12 26 12H22ZM13 14V24.3C13 24.4829 13.0732 24.6601 13.2062 24.792C13.3396 24.9242 13.5222 25 13.7143 25H22.2857C22.4778 25 22.6604 24.9242 22.7938 24.792C22.9268 24.6601 23 24.4829 23 24.3V14H13Z" fill="white"/>
</svg>
