<svg width="24" height="24" viewBox="0 0 24 24" fill="none" xmlns="http://www.w3.org/2000/svg">
<path fill-rule="evenodd" clip-rule="evenodd" d="M11.9998 15.625C11.8371 15.625 11.6836 15.5862 11.5478 15.5173C11.4993 15.4927 11.4523 15.4638 11.4074 15.4308C11.3632 15.3982 11.3217 15.362 11.2834 15.3228L7.79277 11.8321C7.40225 11.4416 7.40225 10.8084 7.79277 10.4179C8.18329 10.0274 8.81646 10.0274 9.20698 10.4179L10.9998 12.2107L10.9998 3.25C10.9998 2.69771 11.4475 2.25 11.9998 2.25C12.552 2.25 12.9998 2.69771 12.9998 3.25L12.9998 12.2109L14.7928 10.4179C15.1833 10.0274 15.8165 10.0274 16.207 10.4179C16.5975 10.8084 16.5975 11.4416 16.207 11.8321L12.707 15.3321C12.5978 15.4413 12.4697 15.5199 12.3332 15.5681C12.2289 15.6049 12.1167 15.625 11.9998 15.625ZM3 18.0001C2.44772 18.0001 2 18.4478 2 19.0001C2 19.5523 2.44772 20.0001 3 20.0001H21C21.5523 20.0001 22 19.5523 22 19.0001C22 18.4478 21.5523 18.0001 21 18.0001H3Z" fill="white"/>
</svg>
