<svg width="36" height="36" viewBox="0 0 36 36" fill="none" xmlns="http://www.w3.org/2000/svg">
<circle opacity="0.7" cx="18" cy="18" r="18" fill="#333333"/>
<path fill-rule="evenodd" clip-rule="evenodd" d="M22.2654 12C22.0706 12 21.8838 12.0774 21.746 12.2152L11.7207 22.2405L11.3744 23.6256L12.7595 23.2793L22.7849 13.254C22.8531 13.1858 22.9072 13.1048 22.9441 13.0157C22.981 12.9266 23 12.8311 23 12.7346C23 12.6381 22.981 12.5426 22.9441 12.4535C22.9072 12.3644 22.8531 12.2834 22.7849 12.2152C22.7167 12.1469 22.6357 12.0928 22.5465 12.0559C22.4574 12.019 22.3619 12 22.2654 12ZM20.3318 10.8009C20.8446 10.2881 21.5402 10 22.2654 10C22.6245 10 22.9801 10.0707 23.3119 10.2082C23.6437 10.3456 23.9451 10.547 24.1991 10.8009C24.453 11.0549 24.6544 11.3563 24.7919 11.6881C24.9293 12.0199 25 12.3755 25 12.7346C25 13.0937 24.9293 13.4493 24.7919 13.7811C24.6544 14.1128 24.453 14.4143 24.1991 14.6682L13.9779 24.8894C13.8497 25.0176 13.6892 25.1085 13.5133 25.1524L10.2426 25.9701C9.90178 26.0553 9.54129 25.9555 9.29291 25.7071C9.04453 25.4587 8.94468 25.0982 9.02988 24.7575L9.84757 21.4867C9.89153 21.3109 9.98245 21.1503 10.1106 21.0221L20.3318 10.8009ZM17 25C17 24.4477 17.4477 24 18 24H26C26.5523 24 27 24.4477 27 25C27 25.5523 26.5523 26 26 26H18C17.4477 26 17 25.5523 17 25Z" fill="white"/>
</svg>
