<svg width="25" height="24" viewBox="0 0 25 24" fill="none" xmlns="http://www.w3.org/2000/svg">
<path fill-rule="evenodd" clip-rule="evenodd" d="M8.5 5H6.5C5.94772 5 5.5 5.44772 5.5 6V8C5.5 8.55228 5.94772 9 6.5 9H8.5C9.05228 9 9.5 8.55228 9.5 8V6C9.5 5.44772 9.05228 5 8.5 5ZM6.5 3C4.84315 3 3.5 4.34315 3.5 6V8C3.5 9.65685 4.84315 11 6.5 11H8.5C10.1569 11 11.5 9.65685 11.5 8V6C11.5 4.34315 10.1569 3 8.5 3H6.5Z" fill="white"/>
<path fill-rule="evenodd" clip-rule="evenodd" d="M18.5 5H16.5C15.9477 5 15.5 5.44772 15.5 6V8C15.5 8.55228 15.9477 9 16.5 9H18.5C19.0523 9 19.5 8.55228 19.5 8V6C19.5 5.44772 19.0523 5 18.5 5ZM16.5 3C14.8431 3 13.5 4.34315 13.5 6V8C13.5 9.65685 14.8431 11 16.5 11H18.5C20.1569 11 21.5 9.65685 21.5 8V6C21.5 4.34315 20.1569 3 18.5 3H16.5Z" fill="white"/>
<path fill-rule="evenodd" clip-rule="evenodd" d="M18.5 15H16.5C15.9477 15 15.5 15.4477 15.5 16V18C15.5 18.5523 15.9477 19 16.5 19H18.5C19.0523 19 19.5 18.5523 19.5 18V16C19.5 15.4477 19.0523 15 18.5 15ZM16.5 13C14.8431 13 13.5 14.3431 13.5 16V18C13.5 19.6569 14.8431 21 16.5 21H18.5C20.1569 21 21.5 19.6569 21.5 18V16C21.5 14.3431 20.1569 13 18.5 13H16.5Z" fill="white"/>
<path fill-rule="evenodd" clip-rule="evenodd" d="M8.5 15H6.5C5.94772 15 5.5 15.4477 5.5 16V18C5.5 18.5523 5.94772 19 6.5 19H8.5C9.05228 19 9.5 18.5523 9.5 18V16C9.5 15.4477 9.05228 15 8.5 15ZM6.5 13C4.84315 13 3.5 14.3431 3.5 16V18C3.5 19.6569 4.84315 21 6.5 21H8.5C10.1569 21 11.5 19.6569 11.5 18V16C11.5 14.3431 10.1569 13 8.5 13H6.5Z" fill="white"/>
</svg>
