<svg width="24" height="24" viewBox="0 0 24 24" fill="none" xmlns="http://www.w3.org/2000/svg">
<path d="M11.9946 16.7698C13.6989 16.7698 15.3492 16.5261 16.8593 16.0619L14.6697 14.2398L13.0517 12.8936V14.4371C12.7065 14.4603 12.3506 14.4836 11.9838 14.4836C6.63371 14.4836 2.11416 11.6867 2.11416 8.39072C2.11416 5.09478 6.63371 2.29787 11.9838 2.29787C15.4031 2.29787 18.4773 3.4352 20.2463 5.11799L21.9506 3.69052C21.4652 3.19149 20.9043 2.71567 20.2571 2.29787C18.0458 0.812379 15.1011 0 11.9946 0C8.8773 0 5.93258 0.812379 3.71056 2.28627C1.31596 3.87621 0 6.03482 0 8.37911C0 10.7234 1.31596 12.8936 3.71056 14.472C5.93258 15.9574 8.8773 16.7698 11.9946 16.7698ZM20.2787 9.53965C18.0458 8.06576 15.1011 7.25339 11.9946 7.25339C10.2903 7.25339 8.64 7.4971 7.12989 7.96131L9.30876 9.78337L10.9267 11.1296V9.57447C11.2719 9.55126 11.6279 9.52805 11.9946 9.52805C17.3447 9.52805 21.8643 12.325 21.8643 15.6209C21.8643 18.9284 17.3447 21.7137 11.9946 21.7137C8.57528 21.7137 5.50112 20.5764 3.73214 18.8936L2.02787 20.3211C2.51326 20.8201 3.07416 21.2959 3.72135 21.7137C5.95416 23.1876 8.89888 24 12.0054 24C15.1227 24 18.0566 23.1876 20.2894 21.7137C22.684 20.1354 24 17.9652 24 15.6209C23.9892 13.2766 22.6733 11.118 20.2787 9.53965Z" fill="#EF5D54"/>
</svg>
