<svg width="36" height="36" viewBox="0 0 36 36" fill="none" xmlns="http://www.w3.org/2000/svg">
<circle opacity="0.7" cx="18" cy="18" r="18" fill="#333333"/>
<path fill-rule="evenodd" clip-rule="evenodd" d="M9 18C9 13.0294 13.0294 9 18 9C22.9706 9 27 13.0294 27 18C27 22.9706 22.9706 27 18 27C13.0294 27 9 22.9706 9 18ZM18 7C11.9249 7 7 11.9249 7 18C7 24.0751 11.9249 29 18 29C24.0751 29 29 24.0751 29 18C29 11.9249 24.0751 7 18 7ZM18 13C17.4477 13 17 13.4477 17 14C17 14.5523 17.4477 15 18 15H18.01C18.5623 15 19.01 14.5523 19.01 14C19.01 13.4477 18.5623 13 18.01 13H18ZM19 17C19 16.4477 18.5523 16 18 16C17.4477 16 17 16.4477 17 17V22C17 22.5523 17.4477 23 18 23C18.5523 23 19 22.5523 19 22V17Z" fill="white"/>
</svg>
