<svg width="24" height="24" viewBox="0 0 24 24" fill="none" xmlns="http://www.w3.org/2000/svg">
<path fill-rule="evenodd" clip-rule="evenodd" d="M7 8C6.44771 8 6 8.44772 6 9C6 9.55229 6.44771 10 7 10C7.55228 10 8 9.55229 8 9C8 8.44772 7.55228 8 7 8ZM4 9C4 7.34315 5.34314 6 7 6C8.65685 6 10 7.34315 10 9C10 10.6569 8.65685 12 7 12C5.34314 12 4 10.6569 4 9Z" fill="white"/>
<path fill-rule="evenodd" clip-rule="evenodd" d="M12.1588 11.5753C14.0917 9.76958 17.0877 9.7863 19 11.5889C19.0363 11.6231 19.0721 11.6579 19.1076 11.6934L21 13.5858C21 13.5858 20.2929 15.8628 20.2929 15.7071L19 14.4142L17.6934 13.1076C16.5499 11.9641 14.7058 11.9328 13.5241 13.0368L6.09936 20L4.5 21.5C4.87702 21.9035 4.09642 21.877 4.5 21.5L2.50002 20.5L3.62934 19.4565L12.1588 11.5753Z" fill="white"/>
<path d="M19 11.5889C19.0363 11.6231 19.0721 11.6579 19.1076 11.6934L21 13.5858C21 13.5858 20.2929 15.8628 20.2929 15.7071L19 14.4142V18C19 19.1046 18.1046 20 17 20H6.09936L4.5 21.5L2.50002 20.5L3.62934 19.4565C3.2419 19.0917 3 18.5741 3 18V6C3 4.89543 3.89543 4 5 4H14C14.5523 4 15 3.55228 15 3C15 2.44772 14.5523 2 14 2H5C2.79086 2 1 3.79086 1 6V18C1 20.2091 2.79086 22 5 22H17C19.2091 22 21 20.2091 21 18V10C21 9.44771 20.5523 9 20 9C19.4477 9 19 9.44771 19 10V11.5889Z" fill="white"/>
<path d="M21 3H22C22.2652 3 22.5196 3.10536 22.7071 3.29289C22.8946 3.48043 23 3.73478 23 4C23 4.26522 22.8946 4.51957 22.7071 4.70711C22.5196 4.89464 22.2652 5 22 5H21V6C21 6.26522 20.8946 6.51957 20.7071 6.70711C20.5196 6.89464 20.2652 7 20 7C19.7348 7 19.4804 6.89464 19.2929 6.70711C19.1054 6.51957 19 6.26522 19 6V5H18C17.7348 5 17.4804 4.89464 17.2929 4.70711C17.1054 4.51957 17 4.26522 17 4C17 3.73478 17.1054 3.48043 17.2929 3.29289C17.4804 3.10536 17.7348 3 18 3H19V2C19 1.73478 19.1054 1.48043 19.2929 1.29289C19.4804 1.10536 19.7348 1 20 1C20.2652 1 20.5196 1.10536 20.7071 1.29289C20.8946 1.48043 21 1.73478 21 2V3Z" fill="white"/>
</svg>
