<svg width="24" height="24" viewBox="0 0 24 24" fill="none" xmlns="http://www.w3.org/2000/svg">
<path fill-rule="evenodd" clip-rule="evenodd" d="M12.7136 2.54947C12.6898 2.52515 12.6646 2.50205 12.6384 2.48026C12.5687 2.42231 12.493 2.3753 12.4135 2.33922C12.2875 2.28192 12.1475 2.25 12 2.25C11.9969 2.25 11.9938 2.25001 11.9907 2.25004C11.8726 2.25112 11.7546 2.27302 11.6427 2.31574C11.5151 2.36442 11.3956 2.44014 11.2928 2.54289L7.79283 6.04289C7.40231 6.43342 7.40231 7.06658 7.79283 7.45711C8.18336 7.84763 8.81652 7.84763 9.20705 7.45711L11 5.66415V14.625C11 15.1773 11.4477 15.625 12 15.625C12.5523 15.625 13 15.1773 13 14.625V5.66427L14.7928 7.45711C15.1834 7.84763 15.8165 7.84763 16.207 7.45711C16.5976 7.06658 16.5976 6.43342 16.207 6.04289L12.7136 2.54947ZM5.00006 11.0001C5.55235 11.0001 6.00006 11.4478 6.00006 12.0001V19.0001C6.00006 19.199 6.07908 19.3897 6.21973 19.5304C6.36038 19.671 6.55115 19.7501 6.75006 19.7501H17.2501C17.449 19.7501 17.6397 19.671 17.7804 19.5304C17.921 19.3897 18.0001 19.199 18.0001 19.0001V12.0001C18.0001 11.4478 18.4478 11.0001 19.0001 11.0001C19.5523 11.0001 20.0001 11.4478 20.0001 12.0001V19.0001C20.0001 19.7294 19.7103 20.4289 19.1946 20.9446C18.6789 21.4603 17.9794 21.7501 17.2501 21.7501H6.75006C6.02071 21.7501 5.32124 21.4603 4.80552 20.9446C4.28979 20.4289 4.00006 19.7294 4.00006 19.0001V12.0001C4.00006 11.4478 4.44778 11.0001 5.00006 11.0001Z" fill="#1A1A1A"/>
</svg>
