<svg width="24" height="24" viewBox="0 0 24 24" fill="none" xmlns="http://www.w3.org/2000/svg">
<path fill-rule="evenodd" clip-rule="evenodd" d="M12.7136 2.54947C12.6897 2.52515 12.6646 2.50205 12.6383 2.48026C12.5686 2.42231 12.4929 2.3753 12.4134 2.33922C12.2874 2.28192 12.1474 2.25 11.9999 2.25C11.9969 2.25 11.9938 2.25001 11.9907 2.25004C11.8725 2.25112 11.7545 2.27302 11.6426 2.31574C11.5151 2.36442 11.3955 2.44014 11.2928 2.54289L7.79277 6.04289C7.40225 6.43342 7.40225 7.06658 7.79277 7.45711C8.1833 7.84763 8.81646 7.84763 9.20698 7.45711L10.9999 5.66415V14.625C10.9999 15.1773 11.4477 15.625 11.9999 15.625C12.5522 15.625 12.9999 15.1773 12.9999 14.625V5.66427L14.7928 7.45711C15.1833 7.84763 15.8165 7.84763 16.207 7.45711C16.5975 7.06658 16.5975 6.43342 16.207 6.04289L12.7136 2.54947ZM5 11.0001C5.55228 11.0001 6 11.4478 6 12.0001V19.0001C6 19.199 6.07902 19.3897 6.21967 19.5304C6.36032 19.671 6.55109 19.7501 6.75 19.7501H17.25C17.4489 19.7501 17.6397 19.671 17.7803 19.5304C17.921 19.3897 18 19.199 18 19.0001V12.0001C18 11.4478 18.4477 11.0001 19 11.0001C19.5523 11.0001 20 11.4478 20 12.0001V19.0001C20 19.7294 19.7103 20.4289 19.1945 20.9446C18.6788 21.4603 17.9793 21.7501 17.25 21.7501H6.75C6.02065 21.7501 5.32118 21.4603 4.80546 20.9446C4.28973 20.4289 4 19.7294 4 19.0001V12.0001C4 11.4478 4.44772 11.0001 5 11.0001Z" fill="white"/>
</svg>
