<svg width="48" height="48" viewBox="0 0 48 48" fill="none" xmlns="http://www.w3.org/2000/svg">
<g clip-path="url(#clip0_13025_262568)">
<path d="M23.9738 48C37.2142 48 47.9477 37.2548 47.9477 24C47.9477 10.7452 37.2142 0 23.9738 0C10.7335 0 0 10.7452 0 24C0 37.2548 10.7335 48 23.9738 48Z" fill="url(#paint0_linear_13025_262568)"/>
<path d="M18.1683 30.5226C16.3716 21.5296 11.5993 14.3914 4.91807 9.44531C0.0896158 15.7966 -1.48244 24.4523 1.54938 32.4336C5.08651 41.7076 13.6767 47.553 22.9406 47.9465C20.5825 42.3259 19.1227 36.1432 18.1683 30.5226Z" fill="url(#paint1_linear_13025_262568)"/>
<path d="M29.9541 0.785156C30.684 1.68445 31.3577 2.58375 31.9753 3.53926C39.8917 15.6236 33.3228 29.2817 32.7052 42.3215C32.5929 43.6142 32.5929 44.9632 32.8175 46.3121C45.0009 41.5346 51.0646 27.8203 46.4607 15.5112C43.5412 7.92333 37.1968 2.63996 29.9541 0.785156Z" fill="url(#paint2_linear_13025_262568)"/>
<path d="M11.5 15.5C11.5 13.2909 13.2909 11.5 15.5 11.5H33.5C35.7091 11.5 37.5 13.2909 37.5 15.5V33.5C37.5 35.7091 35.7091 37.5 33.5 37.5H15.5C13.2909 37.5 11.5 35.7091 11.5 33.5V15.5Z" fill="#FFC6BF" fill-opacity="0.7"/>
<path d="M18.5 22C20.433 22 22 20.433 22 18.5C22 16.567 20.433 15 18.5 15C16.567 15 15 16.567 15 18.5C15 20.433 16.567 22 18.5 22Z" fill="white"/>
<path d="M37.5 26.5V33.5C37.5 35.7091 35.7099 37.5 33.5008 37.5C28.5368 37.5 20.4902 37.5 15.4954 37.5C13.2863 37.5 11.5 35.7091 11.5 33.5V30.0049C14.3 30.3514 18.9571 25.9851 22.5 25.5C26.2714 24.9455 29.5 30.4901 32.4714 29.8663C35.1571 29.2425 35.9 27.401 37.5 26.5Z" fill="white" fill-opacity="0.87"/>
</g>
<defs>
<linearGradient id="paint0_linear_13025_262568" x1="-13.5581" y1="-9.18087" x2="37.0487" y2="35.466" gradientUnits="userSpaceOnUse">
<stop offset="0.00236328" stop-color="#EF7361"/>
<stop offset="1" stop-color="#FD8A82"/>
</linearGradient>
<linearGradient id="paint1_linear_13025_262568" x1="-15.9401" y1="19.7926" x2="18.1034" y2="30.3877" gradientUnits="userSpaceOnUse">
<stop offset="0.00236328" stop-color="#EF7361"/>
<stop offset="1" stop-color="#FD8A82"/>
</linearGradient>
<linearGradient id="paint2_linear_13025_262568" x1="14.9348" y1="7.26485" x2="48.2843" y2="36.6868" gradientUnits="userSpaceOnUse">
<stop offset="0.00236328" stop-color="#EF7361"/>
<stop offset="1" stop-color="#FD8A82"/>
</linearGradient>
<clipPath id="clip0_13025_262568">
<rect width="48" height="48" rx="24" fill="white"/>
</clipPath>
</defs>
</svg>
