<svg width="24" height="24" viewBox="0 0 24 24" fill="none" xmlns="http://www.w3.org/2000/svg">
<g opacity="0.7">
<path d="M7.40374 7.40373C7.01321 7.79426 7.01321 8.42742 7.40374 8.81795L10.5857 11.9999L7.40373 15.1819C7.01321 15.5725 7.01321 16.2056 7.40373 16.5962C7.79426 16.9867 8.42742 16.9867 8.81795 16.5962L11.9999 13.4142L15.1819 16.5961C15.5724 16.9866 16.2056 16.9866 16.5961 16.5961C16.9867 16.2056 16.9867 15.5724 16.5961 15.1819L13.4142 11.9999L16.5961 8.81798C16.9866 8.42745 16.9866 7.79429 16.5961 7.40376C16.2056 7.01324 15.5724 7.01324 15.1819 7.40376L11.9999 10.5857L8.81795 7.40373C8.42743 7.01321 7.79426 7.01321 7.40374 7.40373Z" fill="white"/>
</g>
</svg>
